<?xml version="1.0" encoding="UTF-8"?>
<svg xmlns="http://www.w3.org/2000/svg" xmlns:xlink="http://www.w3.org/1999/xlink" version="1.1" viewBox="0 0 242 242">
  <!-- Generator: Adobe Illustrator 30.1.0, SVG Export Plug-In . SVG Version: 2.1.1 Build 136)  -->
  <defs>
    <style>
      .st0 {
        fill: none;
      }

      .st1 {
        fill: url(#linear-gradient2);
      }

      .st2 {
        fill: url(#linear-gradient1);
      }

      .st3 {
        fill: url(#linear-gradient3);
      }

      .st4 {
        fill: url(#linear-gradient5);
      }

      .st5 {
        fill: url(#linear-gradient4);
      }

      .st6 {
        fill: url(#linear-gradient);
      }

      .st7 {
        fill: #fff;
      }

      .st8 {
        display: none;
      }
    </style>
    <linearGradient id="linear-gradient" x1="107.29" y1="-549" x2="128.3" y2="-549" gradientTransform="translate(0 668)" gradientUnits="userSpaceOnUse">
      <stop offset="0" stop-color="#0f4961"/>
      <stop offset=".06" stop-color="#175b7b"/>
      <stop offset=".14" stop-color="#217098"/>
      <stop offset=".24" stop-color="#2981af"/>
      <stop offset=".34" stop-color="#2f8ec1"/>
      <stop offset=".47" stop-color="#3397ce"/>
      <stop offset=".64" stop-color="#369cd5"/>
      <stop offset="1" stop-color="#379ed8"/>
    </linearGradient>
    <linearGradient id="linear-gradient1" x1="104.33" y1="-544" x2="121.65" y2="-544" xlink:href="#linear-gradient"/>
    <linearGradient id="linear-gradient2" x1="101.4" y1="-539" x2="114.94" y2="-539" xlink:href="#linear-gradient"/>
    <linearGradient id="linear-gradient3" x1="94.52" y1="-542.51" x2="104.76" y2="-542.51" gradientTransform="translate(0 668)" gradientUnits="userSpaceOnUse">
      <stop offset="0" stop-color="#874e9f"/>
      <stop offset=".28" stop-color="#824a9b"/>
      <stop offset=".61" stop-color="#743f92"/>
      <stop offset=".95" stop-color="#5d2d82"/>
      <stop offset=".98" stop-color="#5b2c81"/>
    </linearGradient>
    <linearGradient id="linear-gradient4" x1="91.54" y1="-540.53" x2="103.3" y2="-540.53" xlink:href="#linear-gradient3"/>
    <linearGradient id="linear-gradient5" x1="88.6" y1="-539" x2="101.79" y2="-539" xlink:href="#linear-gradient3"/>
  </defs>
  <g id="Guide" class="st8">
    <rect width="242" height="242"/>
  </g>
  <g id="Layer_2">
    <g>
      <path class="st0" d="M102.54,142.15s0-.01,0-.02l-.75,2.01s0,0,0,0l.74-1.98h0Z"/>
      <path class="st7" d="M74.18,112.9c-.55-.05-1.66-.08-3.34-.08-5.63,0-11.26,0-16.88,0v1.38c5.68,0,11.35,0,17.03,0,1.54,0,2.58.03,3.13.08,8.26.84,14.66,7.86,13.73,16.36-.4,3.69-2.25,7.07-5.08,9.45-2.88,2.42-6.52,3.7-10.28,3.71-1.86,0-3.89,0-6.11,0-.01,0-.02-.01-.02-.02v-1.33s0-.02.02-.02c3.71,0,5.76,0,6.16,0,4.96-.01,9.73-2.54,12.26-6.85,1.89-3.23,2.28-7.16,1.09-10.71-1.8-5.35-6.85-8.88-12.4-9.25-.93-.06-2.01-.04-3.08-.04-5.25,0-9.8,0-13.67,0-.02,0-.03.01-.03.03v1.33s0,.02.02.02c8.96,0,14.18,0,15.67,0,3.06,0,5.97,1,8.36,2.92,2.84,2.29,4.5,5.75,4.42,9.41-.11,5.15-3.59,9.43-8.39,11.05-.99.34-2.02.56-3.07.66-.48.05-1.47.07-2.97.06-.92,0-2.37,0-4.35,0-.02,0-.04-.02-.04-.04v-1.32s0-.02.02-.02c2.77,0,4.47,0,5.09,0,1.08,0,1.92-.02,2.52-.1,3.49-.44,6.64-2.35,8.44-5.41,1.52-2.58,1.79-5.79.79-8.59-1.45-4.04-5.14-6.65-9.33-7.17-.5-.06-1.38-.09-2.64-.09-1.73,0-5.65,0-11.75,0-.01,0-.02,0-.02.02v26.84s1.38,0,1.38,0v-25.45s.01-.03.03-.03h1.32s.03.01.03.03v25.45h1.38v-25.45s.01-.03.03-.03h1.31s.03.01.03.03v25.45h7.94c.35-.02.7-.04,1.05-.07,1.83-.15,3.57-.57,5.24-1.26,3.57-1.48,6.56-4.14,8.35-7.57,2.33-4.46,2.35-9.77.14-14.25-2.58-5.22-7.82-8.57-13.51-9.13h0ZM66.36,129c0-5.06,0-8.15,0-9.28,0-.01.01-.02.02-.02,1.9,0,3.59,0,5.09,0,1.07,0,1.86.03,2.36.1,2.82.39,5.39,1.85,6.99,4.19,1.01,1.48,1.56,3.21,1.56,5.02,0,1.81-.54,3.54-1.56,5.02-1.6,2.33-4.17,3.79-6.99,4.18-.5.07-1.29.1-2.36.1-1.5,0-3.19,0-5.09,0-.01,0-.02-.01-.02-.02,0-1.12,0-4.21,0-9.28h0Z"/>
      <g>
        <path class="st6" d="M128.3,92.82h-1.41s-.03.02-.04.04c-6.52,17.44-13.04,34.88-19.56,52.32h1.45l19.56-52.31s0,0,0-.01c0-.02,0-.04,0-.04Z"/>
        <path class="st2" d="M121.64,102.81h-1.43s-.04.01-.05.03l-15.83,42.33h1.48l15.84-42.35s0-.02-.01-.02h0Z"/>
        <path class="st1" d="M114.93,112.81h-1.38s-.03.01-.04.03l-7.4,19.72-3.57,9.57s0,.02,0,.02l-.74,1.98s0,0,0,0l-.39,1.04h1.43l12.12-32.35s0-.02-.01-.02h0Z"/>
      </g>
      <g>
        <path class="st3" d="M95.99,112.83s-.01-.02-.03-.02h-1.42s-.03.02-.03.04c0,0,9.5,25.31,9.5,25.31,0,0,.74-1.97.74-1.98l-8.77-23.35h0Z"/>
        <path class="st5" d="M103.3,140.09s-.01,0-.01,0l-10.24-27.26s-.02-.02-.03-.02h-1.46s-.02.01-.01.02l11,29.28s0,0,0,.01l.76-2.03s0,0,0,0h0Z"/>
        <path class="st4" d="M101.76,144.13l-11.64-31.3s-.02-.02-.03-.02h-1.47s-.02.01-.01.02l12.12,32.35h.69l.39-1.04s-.03.01-.03,0Z"/>
      </g>
      <path class="st7" d="M126.41,112.82h-1.31s-.03.01-.03.03v32.33h1.38v-32.33s-.02-.03-.04-.03Z"/>
      <path class="st7" d="M129.17,112.82h-1.31s-.03.01-.03.03v32.33s1.38,0,1.38,0v-32.33s-.01-.03-.03-.03h0Z"/>
      <path class="st7" d="M149.84,112.81h-1.34s-.02,0-.02.02v23.94s-.02.02-.03,0l-12.93-23.93s-.04-.04-.07-.04h-1.45s-.02.01-.02.03l14.48,26.79s.02.05.02.08v2.59s-.01.01-.01,0l-16.18-29.46s-.03-.03-.05-.03h-1.65s-.01,0-.01.01v32.36s1.37,0,1.37,0v-24.84s.01-.01.02,0l13.48,24.84h1.61l-15.08-27.5s-.02-.06-.02-.09v-2.25s.02-.02.02,0l16.51,29.85h1.37v-32.35s0-.02-.02-.02h0Z"/>
      <path class="st7" d="M152.59,112.82h-1.31s-.03.01-.03.03v32.33h1.38v-32.33s-.01-.03-.03-.03h0Z"/>
      <path class="st7" d="M155.34,112.82h-1.32s-.03.01-.03.03v32.34h1.38v-32.33s-.01-.03-.03-.03h0Z"/>
      <rect class="st7" x="159.74" y="112.81" width="30.31" height="1.38" rx=".51" ry=".51"/>
      <path class="st7" d="M159.77,115.56h27.49s.03.01.03.03v1.32s-.01.03-.03.03h-27.49s-.03-.01-.03-.03v-1.32s.01-.03.03-.03h0Z"/>
      <path class="st7" d="M184.51,118.32h-24.75s-.02.01-.02.02v1.34s0,.02.02.02h8.91s.03.01.03.03v25.45h1.38v-25.45s.01-.03.03-.03h1.31s.03.02.03.03v25.44h1.38v-25.45s.01-.03.03-.03h1.31s.03.01.03.03v25.45h1.38v-25.45s.01-.03.03-.03h8.91s.02,0,.02-.02v-1.34s0-.02-.02-.02h0Z"/>
    </g>
  </g>
</svg>